<svg xmlns="http://www.w3.org/2000/svg" viewBox="0 0 19.03 21.99"><defs><style>.cls-1{fill:#9ba6ac;}</style></defs><title>자산 1</title><g id="레이어_2" data-name="레이어 2"><g id="레이어_1-2" data-name="레이어 1"><path class="cls-1" d="M18.67,7.21l-8.52-7-.09,0L9.88.07,9.7,0,9.52,0,9.33,0,9.15.07,9,.16l-.09,0-8.51,7A1,1,0,0,0,1,9a1.17,1.17,0,0,0,.41-.1V21a1,1,0,0,0,1,1H16.62a1,1,0,0,0,1-1V8.89A1.23,1.23,0,0,0,18,9a1,1,0,0,0,.78-.37A1,1,0,0,0,18.67,7.21ZM11.39,20H7.64V13.77h3.75Zm2,0V12.77a1,1,0,0,0-1-1H6.64a1,1,0,0,0-1,1V20H3.41V7.3l6.11-5,6.1,5V20Z"/></g></g></svg>