<svg xmlns="http://www.w3.org/2000/svg" viewBox="0 0 23.03 21.99"><defs><style>.cls-1{fill:#9ba6ac;}</style></defs><title>home_1</title><g id="레이어_2" data-name="레이어 2"><g id="레이어_1-2" data-name="레이어 1"><path class="cls-1" d="M22.59,7.15,12.07.15h0A.93.93,0,0,0,11.71,0a.62.62,0,0,0-.19,0,.67.67,0,0,0-.2,0A1,1,0,0,0,11,.15h0L.45,7.15A1,1,0,0,0,1,9a1,1,0,0,0,.55-.17l.86-.57V21a1,1,0,0,0,1,1H8.64a1,1,0,0,0,1-1V15.47h3.75V21a1,1,0,0,0,1,1h5.23a1,1,0,0,0,1-1V8.25l.86.57a1,1,0,1,0,1.11-1.67ZM18.62,20H15.39V14.47a1,1,0,0,0-1-1H8.64a1,1,0,0,0-1,1V20H4.41V6.92l7.11-4.73,7.1,4.73Z"/></g></g></svg>