<svg xmlns="http://www.w3.org/2000/svg" viewBox="0 0 20.03 18.01"><defs><style>.cls-1{fill:#fff;}</style></defs><title>menu1</title><g id="레이어_2" data-name="레이어 2"><g id="레이어_1-2" data-name="레이어 1"><path class="cls-1" d="M19.16,2H.87A.94.94,0,0,1,0,1,.94.94,0,0,1,.87,0H19.16A.94.94,0,0,1,20,1,.94.94,0,0,1,19.16,2Z"/><path class="cls-1" d="M19.16,10H.87A.94.94,0,0,1,0,9,.94.94,0,0,1,.87,8H19.16A.94.94,0,0,1,20,9,.94.94,0,0,1,19.16,10Z"/><path class="cls-1" d="M19.16,18H.87a1,1,0,0,1,0-2H19.16a1,1,0,0,1,0,2Z"/></g></g></svg>